<?xml version="1.0" encoding="UTF-8"?>
<!DOCTYPE svg PUBLIC "-//W3C//DTD SVG 1.1//EN" "http://www.w3.org/Graphics/SVG/1.1/DTD/svg11.dtd">
<svg xmlns="http://www.w3.org/2000/svg" version="1.1" width="285px" height="96px" style="shape-rendering:geometricPrecision; text-rendering:geometricPrecision; image-rendering:optimizeQuality; fill-rule:evenodd; clip-rule:evenodd" xmlns:xlink="http://www.w3.org/1999/xlink">
<g><path style="opacity:0.896" fill="#64276d" d="M 70.5,41.5 C 69.6862,39.369 69.1862,37.0356 69,34.5C 68.6232,33.0577 67.7899,32.0577 66.5,31.5C 60.0086,24.0019 52.1752,18.3352 43,14.5C 39.7948,15.7982 38.7948,18.1316 40,21.5C 43.9096,25.2084 48.4096,28.0417 53.5,30C 57.042,32.2657 60.3753,34.7657 63.5,37.5C 65.0772,40.0499 67.0772,42.0499 69.5,43.5C 73.4025,50.561 73.4025,57.561 69.5,64.5C 68.6862,62.369 68.1862,60.0356 68,57.5C 67.6232,56.0577 66.7899,55.0577 65.5,54.5C 65.573,52.9731 64.9063,51.9731 63.5,51.5C 62.1667,48.1667 59.8333,45.8333 56.5,44.5C 52.292,40.3151 47.292,37.3151 41.5,35.5C 41.1583,34.6618 40.4916,34.3284 39.5,34.5C 39.1583,33.6618 38.4916,33.3284 37.5,33.5C 37.5,32.8333 37.1667,32.5 36.5,32.5C 36.0269,31.0937 35.0269,30.427 33.5,30.5C 33.5,29.8333 33.1667,29.5 32.5,29.5C 31.3599,27.2198 30.1932,24.8864 29,22.5C 28.5026,19.854 28.3359,17.1873 28.5,14.5C 28.5,14.1667 28.5,13.8333 28.5,13.5C 29.3382,13.1583 29.6716,12.4916 29.5,11.5C 30.1667,11.5 30.5,11.1667 30.5,10.5C 35.0418,4.74393 41.0418,2.9106 48.5,5C 57.8456,9.02041 65.3456,15.1871 71,23.5C 72.9397,29.549 72.7731,35.549 70.5,41.5 Z M 66.5,31.5 C 65.5,33.5 64.5,35.5 63.5,37.5C 60.3753,34.7657 57.042,32.2657 53.5,30C 48.4096,28.0417 43.9096,25.2084 40,21.5C 38.7948,18.1316 39.7948,15.7982 43,14.5C 52.1752,18.3352 60.0086,24.0019 66.5,31.5 Z"/></g>
<g><path style="opacity:0.876" fill="#ced0d1" d="M 30.5,10.5 C 29.8333,10.5 29.5,10.8333 29.5,11.5C 28.6618,11.8417 28.3284,12.5084 28.5,13.5C 28.5,13.8333 28.5,14.1667 28.5,14.5C 27.8343,17.0277 27.1676,19.6944 26.5,22.5C 17.7079,26.215 11.0413,32.215 6.5,40.5C 5.65536,39.3285 4.98869,37.9952 4.5,36.5C 4.80155,33.9407 4.46822,31.6074 3.5,29.5C 10.5529,20.6225 19.2196,13.6225 29.5,8.5C 30.2975,8.95689 30.6309,9.62356 30.5,10.5 Z"/></g>
<g><path style="opacity:0.801" fill="#63276d" d="M 81.5,24.5 C 84.1667,24.5 86.8333,24.5 89.5,24.5C 89.5,35.1667 89.5,45.8333 89.5,56.5C 86.5,56.5 83.5,56.5 80.5,56.5C 80.1909,45.7517 80.5242,35.085 81.5,24.5 Z"/></g>
<g><path style="opacity:0.85" fill="#63276d" d="M 94.5,24.5 C 105.838,24.3335 117.172,24.5001 128.5,25C 134.268,26.1265 138.435,29.2931 141,34.5C 141.5,41.8258 141.666,49.1591 141.5,56.5C 138.5,56.5 135.5,56.5 132.5,56.5C 132.666,49.825 132.5,43.1583 132,36.5C 131.167,35.6667 130.333,34.8333 129.5,34C 120.506,33.5002 111.506,33.3336 102.5,33.5C 102.5,41.1667 102.5,48.8333 102.5,56.5C 99.8333,56.5 97.1667,56.5 94.5,56.5C 94.5,45.8333 94.5,35.1667 94.5,24.5 Z"/></g>
<g><path style="opacity:0.836" fill="#63276d" d="M 158.5,24.5 C 168.167,24.5 177.833,24.5 187.5,24.5C 187.5,35.1667 187.5,45.8333 187.5,56.5C 184.5,56.5 181.5,56.5 178.5,56.5C 178.5,52.5 178.5,48.5 178.5,44.5C 170.5,44.5 162.5,44.5 154.5,44.5C 154.5,48.5 154.5,52.5 154.5,56.5C 151.5,56.5 148.5,56.5 145.5,56.5C 145.144,48.7618 145.644,41.0952 147,33.5C 149.593,28.721 153.427,25.721 158.5,24.5 Z M 158.5,33.5 C 165.167,33.5 171.833,33.5 178.5,33.5C 178.5,34.5 178.5,35.5 178.5,36.5C 170.826,36.6664 163.159,36.4997 155.5,36C 156.571,35.1482 157.571,34.3149 158.5,33.5 Z"/></g>
<g><path style="opacity:0.832" fill="#63276d" d="M 191.5,24.5 C 205.5,24.5 219.5,24.5 233.5,24.5C 235.845,34.3084 232.512,41.1417 223.5,45C 227.016,48.3486 230.349,51.8486 233.5,55.5C 230.216,56.657 226.882,56.8236 223.5,56C 219.833,52.3333 216.167,48.6667 212.5,45C 209.183,44.5017 205.85,44.335 202.5,44.5C 202.5,41.8333 202.5,39.1667 202.5,36.5C 209.508,36.6663 216.508,36.4996 223.5,36C 223.957,35.586 224.291,35.086 224.5,34.5C 216.528,33.5023 208.528,33.169 200.5,33.5C 200.5,41.1667 200.5,48.8333 200.5,56.5C 197.5,56.5 194.5,56.5 191.5,56.5C 191.5,45.8333 191.5,35.1667 191.5,24.5 Z"/></g>
<g><path style="opacity:0.859" fill="#63276d" d="M 248.5,24.5 C 257.833,24.5 267.167,24.5 276.5,24.5C 276.5,35.1667 276.5,45.8333 276.5,56.5C 273.833,56.5 271.167,56.5 268.5,56.5C 268.5,52.5 268.5,48.5 268.5,44.5C 260.5,44.5 252.5,44.5 244.5,44.5C 244.5,48.5 244.5,52.5 244.5,56.5C 241.5,56.5 238.5,56.5 235.5,56.5C 235.104,48.747 235.604,41.0804 237,33.5C 239.568,28.7529 243.401,25.7529 248.5,24.5 Z M 248.5,33.5 C 255.167,33.5 261.833,33.5 268.5,33.5C 268.5,34.5 268.5,35.5 268.5,36.5C 260.826,36.6664 253.159,36.4997 245.5,36C 246.571,35.1482 247.571,34.3149 248.5,33.5 Z"/></g>
<g><path style="opacity:1" fill="#8f6d95" d="M 2.5,30.5 C 2.5,29.8333 2.83333,29.5 3.5,29.5C 4.46822,31.6074 4.80155,33.9407 4.5,36.5C 3.83333,34.5 3.16667,32.5 2.5,30.5 Z"/></g>
<g><path style="opacity:0.897" fill="#64276d" d="M 2.5,30.5 C 3.16667,32.5 3.83333,34.5 4.5,36.5C 4.98869,37.9952 5.65536,39.3285 6.5,40.5C 7.16667,41.8333 7.83333,43.1667 8.5,44.5C 10.5691,47.5725 13.2358,49.9059 16.5,51.5C 21.1773,55.5095 26.5106,58.5095 32.5,60.5C 32.8417,61.3382 33.5084,61.6716 34.5,61.5C 34.5,62.1667 34.8333,62.5 35.5,62.5C 35.8417,63.3382 36.5084,63.6716 37.5,63.5C 37.5,64.1667 37.8333,64.5 38.5,64.5C 38.5,65.1667 38.8333,65.5 39.5,65.5C 41.732,68.6305 43.3987,71.9639 44.5,75.5C 44.5,75.8333 44.5,76.1667 44.5,76.5C 44.5,77.1667 44.5,77.8333 44.5,78.5C 43.5655,79.5676 43.2322,80.901 43.5,82.5C 42.6618,82.8417 42.3284,83.5084 42.5,84.5C 39.4261,88.3719 35.4261,90.7053 30.5,91.5C 20.2859,88.9753 11.4526,83.9753 4,76.5C 3,74.8333 2,73.1667 1,71.5C 0.333333,66.5 0.333333,61.5 1,56.5C 1.23209,55.2625 1.73209,54.2625 2.5,53.5C 1.74917,57.854 3.0825,61.1873 6.5,63.5C 7.88229,66.3943 9.88229,68.8943 12.5,71C 17.7801,74.628 23.2801,77.7947 29,80.5C 30.1074,80.4148 31.1074,80.0814 32,79.5C 33.2931,75.4179 32.1265,72.2513 28.5,70C 21.1508,66.7959 14.4841,62.6292 8.5,57.5C 7.5,54.5 5.5,52.5 2.5,51.5C -0.165886,44.4947 -0.165886,37.4947 2.5,30.5 Z M 8.5,57.5 C 14.4841,62.6292 21.1508,66.7959 28.5,70C 32.1265,72.2513 33.2931,75.4179 32,79.5C 31.1074,80.0814 30.1074,80.4148 29,80.5C 23.2801,77.7947 17.7801,74.628 12.5,71C 9.88229,68.8943 7.88229,66.3943 6.5,63.5C 7.16667,61.5 7.83333,59.5 8.5,57.5 Z"/></g>
<g><path style="opacity:0.881" fill="#c7c8ca" d="M 32.5,29.5 C 33.1667,29.5 33.5,29.8333 33.5,30.5C 33.9731,31.9063 34.9731,32.573 36.5,32.5C 37.1667,32.5 37.5,32.8333 37.5,33.5C 37.8417,34.3382 38.5084,34.6716 39.5,34.5C 39.8417,35.3382 40.5084,35.6716 41.5,35.5C 35.1312,39.5282 28.4646,43.3615 21.5,47C 19.3825,48.0491 17.7158,49.5491 16.5,51.5C 13.2358,49.9059 10.5691,47.5725 8.5,44.5C 15.5188,37.9874 23.5188,32.9874 32.5,29.5 Z"/></g>
<g><path style="opacity:0.785" fill="#63276d" d="M 113.5,35.5 C 116.167,35.5 118.833,35.5 121.5,35.5C 121.5,42.5 121.5,49.5 121.5,56.5C 118.5,56.5 115.5,56.5 112.5,56.5C 112.205,49.4122 112.538,42.4122 113.5,35.5 Z"/></g>
<g><path style="opacity:1" fill="#88878c" d="M 66.5,31.5 C 67.7899,32.0577 68.6232,33.0577 69,34.5C 69.1862,37.0356 69.6862,39.369 70.5,41.5C 70.1667,42.1667 69.8333,42.8333 69.5,43.5C 67.0772,42.0499 65.0772,40.0499 63.5,37.5C 64.5,35.5 65.5,33.5 66.5,31.5 Z"/></g>
<g><path style="opacity:0.895" fill="#b1b3b6" d="M 56.5,44.5 C 59.8333,45.8333 62.1667,48.1667 63.5,51.5C 58.672,55.0814 53.672,58.4148 48.5,61.5C 48.5,57.5 48.5,53.5 48.5,49.5C 51.1667,47.8333 53.8333,46.1667 56.5,44.5 Z"/></g>
<g><path style="opacity:0.892" fill="#c5c6c8" d="M 48.5,49.5 C 48.5,53.5 48.5,57.5 48.5,61.5C 45.878,63.6435 42.878,64.9769 39.5,65.5C 38.8333,65.5 38.5,65.1667 38.5,64.5C 37.8333,64.5 37.5,64.1667 37.5,63.5C 37.1583,62.6618 36.4916,62.3284 35.5,62.5C 34.8333,62.5 34.5,62.1667 34.5,61.5C 34.1583,60.6618 33.4916,60.3284 32.5,60.5C 32.1961,59.8501 31.8627,59.1835 31.5,58.5C 37.3429,55.7463 43.0095,52.7463 48.5,49.5 Z"/></g>
<g><path style="opacity:0.85" fill="#8d8d92" d="M 2.5,51.5 C 5.5,52.5 7.5,54.5 8.5,57.5C 7.83333,59.5 7.16667,61.5 6.5,63.5C 3.0825,61.1873 1.74917,57.854 2.5,53.5C 2.5,52.8333 2.5,52.1667 2.5,51.5 Z"/></g>
<g><path style="opacity:0.923" fill="#97989c" d="M 65.5,54.5 C 66.7899,55.0577 67.6232,56.0577 68,57.5C 68.1862,60.0356 68.6862,62.369 69.5,64.5C 67.5472,68.1203 64.8805,71.1203 61.5,73.5C 61.5,69.5 61.5,65.5 61.5,61.5C 63.6037,59.6282 64.937,57.2948 65.5,54.5 Z"/></g>
<g><path style="opacity:0.534" fill="#221f1f" d="M 141.5,69.5 C 138.526,72.2855 136.359,71.6188 135,67.5C 134.477,69.2226 133.477,70.556 132,71.5C 129.929,70.2247 128.429,68.3914 127.5,66C 125.833,65.3333 124.167,65.3333 122.5,66C 123.406,67.6995 123.739,69.5328 123.5,71.5C 122.167,71.5 120.833,71.5 119.5,71.5C 119.261,69.5328 119.594,67.6995 120.5,66C 118.167,65.3333 115.833,65.3333 113.5,66C 113.957,66.414 114.291,66.914 114.5,67.5C 112.922,68.2978 111.256,68.7978 109.5,69C 110.902,70.3425 110.569,71.1758 108.5,71.5C 107.353,71.1822 106.519,70.5156 106,69.5C 104.352,71.0284 102.352,71.6951 100,71.5C 97.6477,71.6951 95.6477,71.0284 94,69.5C 93.5,70 93,70.5 92.5,71C 89.1832,71.4983 85.8499,71.665 82.5,71.5C 83.3715,68.9382 83.3715,66.2716 82.5,63.5C 84.6463,63.1218 86.813,62.7885 89,62.5C 91.0342,62.3536 92.7009,63.0203 94,64.5C 98,61.8333 102,61.8333 106,64.5C 109.74,63.2061 113.74,62.5395 118,62.5C 121.833,62.8333 125.667,63.1667 129.5,63.5C 130.083,65.0016 130.916,66.3349 132,67.5C 133.629,61.575 135.796,61.2417 138.5,66.5C 139.5,64.8333 140.833,63.5 142.5,62.5C 142.833,63 143.167,63.5 143.5,64C 142.68,65.8003 142.014,67.6336 141.5,69.5 Z M 97.5,65.5 C 99.9775,65.0508 101.977,65.7175 103.5,67.5C 101.167,68.8333 98.8333,68.8333 96.5,67.5C 96.8627,66.8165 97.1961,66.1499 97.5,65.5 Z"/></g>
<g><path style="opacity:0.55" fill="#221f1f" d="M 141.5,69.5 C 143.477,67.1862 145.477,64.8528 147.5,62.5C 149.657,64.7918 151.824,67.1251 154,69.5C 154.497,67.1902 154.663,64.8568 154.5,62.5C 158.257,62.0708 161.757,62.7375 165,64.5C 168.149,62.6375 171.649,61.9709 175.5,62.5C 175.5,63.5 175.5,64.5 175.5,65.5C 174.448,65.3505 173.448,65.5172 172.5,66C 174.174,67.5059 175.174,69.3393 175.5,71.5C 169.757,72.035 164.257,71.3683 159,69.5C 157.48,70.5067 155.813,71.1734 154,71.5C 150.309,70.3809 146.642,70.3809 143,71.5C 141.97,71.1639 141.47,70.4972 141.5,69.5 Z M 164.5,67.5 C 165.773,68.0768 165.773,68.7435 164.5,69.5C 163.537,69.0302 163.537,68.3635 164.5,67.5 Z"/></g>
<g><path style="opacity:0.556" fill="#221f1f" d="M 181.5,62.5 C 184.167,62.5 186.833,62.5 189.5,62.5C 189.5,63.5 189.5,64.5 189.5,65.5C 188.448,65.3505 187.448,65.5172 186.5,66C 187.766,66.3095 188.933,66.8095 190,67.5C 190.11,65.1517 191.277,63.6517 193.5,63C 196.531,62.5046 199.531,62.6713 202.5,63.5C 202.768,66.1194 202.435,68.6194 201.5,71C 194.163,70.1745 186.83,70.3412 179.5,71.5C 179.33,70.1779 179.663,69.0113 180.5,68C 177.898,65.6883 178.232,63.8549 181.5,62.5 Z M 193.5,65.5 C 195.5,65.5 197.5,65.5 199.5,65.5C 199.5,66.5 199.5,67.5 199.5,68.5C 197.5,68.5 195.5,68.5 193.5,68.5C 193.5,67.5 193.5,66.5 193.5,65.5 Z"/></g>
<g><path style="opacity:0.52" fill="#221f1f" d="M 203.5,62.5 C 204.5,62.5 205.5,62.5 206.5,62.5C 206.5,64.5 206.5,66.5 206.5,68.5C 208.5,68.5 210.5,68.5 212.5,68.5C 212.5,66.5 212.5,64.5 212.5,62.5C 216.35,62.7007 217.35,64.5341 215.5,68C 217.473,68.4955 219.473,68.6621 221.5,68.5C 221.5,66.5 221.5,64.5 221.5,62.5C 227.167,62.5 232.833,62.5 238.5,62.5C 238.5,65.5 238.5,68.5 238.5,71.5C 237.5,71.5 236.5,71.5 235.5,71.5C 235.5,69.5 235.5,67.5 235.5,65.5C 234.167,65.5 232.833,65.5 231.5,65.5C 231.5,67.5 231.5,69.5 231.5,71.5C 230.5,71.5 229.5,71.5 228.5,71.5C 228.5,69.5 228.5,67.5 228.5,65.5C 227.167,65.5 225.833,65.5 224.5,65.5C 224.859,67.7659 224.192,69.5993 222.5,71C 216.314,70.8738 209.981,71.0404 203.5,71.5C 203.5,68.5 203.5,65.5 203.5,62.5 Z"/></g>
<g><path style="opacity:0.604" fill="#221f1f" d="M 242.5,62.5 C 245.545,62.5079 248.545,62.8413 251.5,63.5C 251.768,66.1194 251.435,68.6194 250.5,71C 247.167,71.6667 243.833,71.6667 240.5,71C 238.776,67.4643 239.443,64.631 242.5,62.5 Z M 242.5,65.5 C 244.5,65.5 246.5,65.5 248.5,65.5C 248.5,66.5 248.5,67.5 248.5,68.5C 246.5,68.5 244.5,68.5 242.5,68.5C 242.5,67.5 242.5,66.5 242.5,65.5 Z"/></g>
<g><path style="opacity:0.537" fill="#221f1f" d="M 252.5,62.5 C 255.689,63.5137 258.522,65.1804 261,67.5C 261.494,65.8659 261.66,64.1992 261.5,62.5C 265.731,62.9423 270.064,62.9423 274.5,62.5C 274.5,63.5 274.5,64.5 274.5,65.5C 273.448,65.3505 272.448,65.5172 271.5,66C 275.13,66.271 276.13,67.9377 274.5,71C 267.643,72.5876 261.477,71.4209 256,67.5C 255.51,68.7932 255.343,70.1266 255.5,71.5C 254.5,71.5 253.5,71.5 252.5,71.5C 252.5,68.5 252.5,65.5 252.5,62.5 Z"/></g>
<g><path style="opacity:0.888" fill="#c3c4c6" d="M 61.5,61.5 C 61.5,65.5 61.5,69.5 61.5,73.5C 56.0673,78.7482 49.9006,83.0815 43,86.5C 42.5357,85.9056 42.369,85.2389 42.5,84.5C 43.3382,84.1583 43.6716,83.4916 43.5,82.5C 44.4345,81.4324 44.7678,80.099 44.5,78.5C 45.8333,77.8333 45.8333,77.1667 44.5,76.5C 44.5,76.1667 44.5,75.8333 44.5,75.5C 44.4142,74.5041 44.7476,73.6708 45.5,73C 51.3921,69.8926 56.7254,66.0592 61.5,61.5 Z"/></g>
</svg>
